<svg xmlns="http://www.w3.org/2000/svg" viewBox="0 0 512 512" width="512" height="512">
  <path fill="#4285F4" d="M493.4 256c0-16.7-1.5-32.8-4.3-48.4H256v91.5h133.2c-5.7 30.8-23.1 56.9-49.2 74.4v61.9h79.7c46.6-42.9 73.7-106.1 73.7-179.4z"/>
  <path fill="#34A853" d="M256 498c65.3 0 120.2-21.7 160.2-58.6l-79.7-61.9c-21.7 14.5-49.5 23.1-80.5 23.1-62 0-114.5-41.9-133.2-98.3H40.6v63.9C80.7 445.7 162.2 498 256 498z"/>
  <path fill="#FBBC05" d="M122.8 302.3c-4.8-14.5-7.5-29.9-7.5-46.3s2.7-31.8 7.5-46.3v-63.9H40.6C24.2 178.6 14 216 14 256s10.2 77.4 26.6 110.3l82.2-64z"/>
  <path fill="#EA4335" d="M256 114.3c35.6 0 67.5 12.2 92.6 36.2l69.5-69.5C376.1 41.7 321.2 14 256 14 162.2 14 80.7 66.3 40.6 145.7l82.2 63.9c18.7-56.4 71.2-95.3 133.2-95.3z"/>
</svg>
