<svg xmlns="http://www.w3.org/2000/svg" viewBox="0 0 512 512" width="512" height="512">
  <path fill="#0467DF" d="M342.3 148c-30.8 0-59.5 13.9-79.6 37.1-20.1-23.2-48.8-37.1-79.6-37.1-57.8 0-104.7 46.8-104.7 108 0 66.8 55.4 120 123.6 120 32.7 0 62.5-12.7 84.7-33.8 22.2 21.1 52 33.8 84.7 33.8 68.2 0 123.6-53.2 123.6-120 0-61.2-46.9-108-104.7-108zm-159.2 176c-39.7 0-72-33.6-72-74.9 0-38.1 29.8-69.1 66.7-69.1 23.4 0 44.8 12.2 57.5 31.9l-52.2 112.1zm159.2 0c-12.7 0-34.1-11.8-57.5-31.9l52.2-112.1c39.7 0 72 33.6 72 74.9 0 41.3-32.3 74.9-72 74.9z"/>
</svg>
