<svg xmlns="http://www.w3.org/2000/svg" viewBox="0 0 512 512" width="512" height="512">
  <path fill="#10a37f" d="M470.5 227.8c-10.6-50.6-46.3-90.8-95.2-106.6-13.7-27.4-36.4-49.1-64.8-61.7-52.9-23.4-115.1-4.8-146.4 43.8-31-4.3-62.9 6.2-85.3 28.6-35.9 35.8-43.1 91.6-17.6 135-26.6 20.3-41.5 52.4-39.6 85.7 3.3 58 46.5 104.9 104.2 113.8 13.7 27.4 36.4 49.1 64.8 61.7 52.9 23.4 115.1 4.8 146.4-43.8 31 4.3 62.9-6.2 85.3-28.6 35.9-35.8 43.1-91.6 17.6-135 26.6-20.3 41.5-52.4 39.6-85.7-1.1-23.4-10.2-45.7-29.1-61.2zm-186.2 240c-25.2 0-48.4-11.2-64-30.3 2.8-1.5 6.7-3.7 9.8-5.5l98.3-56.8c5.4-3.1 8.7-8.9 8.7-15.1v-123.6l36.9 21.3c.4.2.7.6.7 1v125.7c0 46.1-37.3 83.3-83.4 83.3zm-143.9-74.9c-12.6-21.8-15.2-47.5-7.3-71.3 2.8 1.6 6.9 4 10.1 5.9l98.3 56.8c5.4 3.1 12 3.1 17.4 0l107-61.8v42.6c0 .4-.2.8-.5 1l-108.9 62.9c-39.9 23.1-91.2 9.4-114.3-30.5-1.2-1.9-2.5-3.8-3.8-5.6zm-36.9-162c7.6-24.1 24.3-43.6 46.7-53.7-0.1 3.2 0 7.7 0 11.5v113.5c0 6.2 3.3 12 8.7 15.1l107 61.8-36.9 21.3c-.4.2-.8.2-1.2 0l-108.9-62.9c-39.9-23.1-53.6-74.4-30.5-114.3.9-1.8 3.3-4.3 5.1-6.3zm277.8-37c12.6 21.8 15.2 47.5 7.3 71.3-2.8-1.6-6.9-4-10.1-5.9l-98.3-56.8c-5.4-3.1-12-3.1-17.4 0l-107 61.8v-42.6c0-.4.2-.8.5-1l108.9-62.9c39.9-23.1 91.2-9.4 114.3 30.5 1.4 2.1 2.6 4.3 3.7 6.4zm42.1 146.4c-7.6 24.1-24.3 43.6-46.7 53.7.1-3.2 0-7.7 0-11.5v-113.5c0-6.2-3.3-12-8.7-15.1l-107-61.8 36.9-21.3c.4-.2.8-.2 1.2 0l108.9 62.9c39.9 23.1 53.6 74.4 30.5 114.3-1.1 1.9-3.3 4.4-5.1 6.3zm-136.2-70.3l-45.9-26.5 45.9-26.5 45.9 26.5-45.9 26.5z"/>
</svg>
